<svg xmlns="http://www.w3.org/2000/svg" xmlns:xlink="http://www.w3.org/1999/xlink" width="3175.639" height="3009.9" viewBox="0 0 3175.639 3009.9">
  <defs>
    <clipPath id="clip-path">
      <rect x="3284" y="2197" width="3175.639" height="3009.9" fill="none"/>
    </clipPath>
  </defs>
  <g id="スクロールグループ_2" data-name="スクロールグループ 2" transform="translate(-3284 -2197)" clip-path="url(#clip-path)" style="isolation: isolate">
    <path id="blob_2_" data-name="blob (2)" d="M5115.275,339.315c545.428,371.721,789.93,942.579,545.428,1367.4-244.5,428.143-982.71,703.615-1316.549,1181.542-329.137,474.608-263.31,1145.034-615.957,1420.505s-1128.471,152.672-1894.89-29.87C1071.589,4096.354,319.276,3857.39,51.264,3455.8c-263.31-401.592-42.318-962.492,371.455-1307.662,413.773-341.851,1025.027-467.97,1467.012-849.648S2613.833,276.255,3173.366,40.61C3732.9-198.353,4574.55-29.087,5115.275,339.315Z" transform="translate(1066.787 82.572) rotate(13)" fill="#1877f2"/>
  </g>
</svg>
