<svg xmlns="http://www.w3.org/2000/svg" xmlns:xlink="http://www.w3.org/1999/xlink" width="1487.391" height="3750.522" viewBox="0 0 1487.391 3750.522">
  <defs>
    <clipPath id="clip-path">
      <rect x="170" y="-91" width="3750.522" height="1487.391" fill="none"/>
    </clipPath>
  </defs>
  <g id="スクロールグループ_1" data-name="スクロールグループ 1" transform="translate(91 3920.522) rotate(-90)" clip-path="url(#clip-path)" style="isolation: isolate">
    <path id="blob_3_" data-name="blob (3)" d="M2339.518,66.771c242.664,154.563,370.555,454.942,596.823,731.99,222.989,274.132,544.355,524.933,705.038,854.474,157.4,329.541,150.845,740.739-49.189,1055.7s-590.265,533.682-993.612,699.911c-400.068,166.229-806.694,279.964-1131.34,148.731S906.488,3047.224,745.8,2758.511,506.42,2265.657,375.25,2081.931C244.08,1901.12,63.722,1734.892-8.422,1533.667s-36.072-437.444,137.728-557.012c170.521-119.568,478.77-119.568,711.6-282.881,229.547-160.4,386.951-481.188,642.732-635.752C1739.416-99.457,2096.854-90.708,2339.518,66.771Z" transform="matrix(0.53, 0.848, -0.848, 0.53, 2424.118, -680.054)" fill="#1877f2"/>
  </g>
</svg>
