<?xml version="1.0" encoding="UTF-8" standalone="no"?> <!-- Created with Vectornator for iOS (http://vectornator.io/) --><!DOCTYPE svg PUBLIC "-//W3C//DTD SVG 1.1//EN" "http://www.w3.org/Graphics/SVG/1.1/DTD/svg11.dtd">
<svg height="100%" style="fill-rule:nonzero;clip-rule:evenodd;stroke-linecap:round;stroke-linejoin:round;" xmlns:xlink="http://www.w3.org/1999/xlink" xmlns="http://www.w3.org/2000/svg" xml:space="preserve" width="100%" xmlns:vectornator="http://vectornator.io" version="1.1" viewBox="0 0 1440 320">
<metadata>
<vectornator:setting key="DimensionsVisible" value="0"/>
<vectornator:setting key="PencilOnly" value="0"/>
<vectornator:setting key="SnapToPoints" value="0"/>
<vectornator:setting key="OutlineMode" value="0"/>
<vectornator:setting key="CMYKEnabledKey" value="0"/>
<vectornator:setting key="RulersVisible" value="1"/>
<vectornator:setting key="SnapToEdges" value="0"/>
<vectornator:setting key="GuidesVisible" value="0"/>
<vectornator:setting key="DisplayWhiteBackground" value="0"/>
<vectornator:setting key="doHistoryDisabled" value="0"/>
<vectornator:setting key="SnapToGuides" value="1"/>
<vectornator:setting key="TimeLapseWatermarkDisabled" value="0"/>
<vectornator:setting key="Units" value="Points"/>
<vectornator:setting key="DynamicGuides" value="1"/>
<vectornator:setting key="IsolateActiveLayer" value="0"/>
<vectornator:setting key="SnapToGrid" value="0"/>
</metadata>
<defs/>
<g id="Untitled" vectornator:layerName="Untitled">
<path d="M-0.144346+319.189L59.8757+297.958C119.896+276.326+239.946+234.461+359.946+234.297C479.948+234.732+599.9+276.869+719.887+288.004C839.875+299.14+959.9+277.275+1079.92+261.711C1199.94+245.547+1319.95+235.683+1379.95+230.051L1439.96+224.82L1440.14+64.8191L1380.14+64.7512C1320.14+64.6834+1200.14+64.5476+1080.14+64.4119C960.141+64.2761+840.141+64.1403+720.141+64.0046C600.141+63.8688+480.141+63.7331+360.146+63.5973C240.146+63.4616+120.146+63.3258+60.1457+63.2579L0.145693+63.19L-0.144346+319.189Z" fill-rule="evenodd" fill="#bde6e5" opacity="1"/>
</g>
</svg>
