<?xml version="1.0" encoding="UTF-8" standalone="no"?> <!-- Created with Vectornator for iOS (http://vectornator.io/) --><!DOCTYPE svg PUBLIC "-//W3C//DTD SVG 1.1//EN" "http://www.w3.org/Graphics/SVG/1.1/DTD/svg11.dtd">
<svg height="100%" style="fill-rule:nonzero;clip-rule:evenodd;stroke-linecap:round;stroke-linejoin:round;" xmlns:xlink="http://www.w3.org/1999/xlink" xmlns="http://www.w3.org/2000/svg" xml:space="preserve" width="100%" xmlns:vectornator="http://vectornator.io" version="1.1" viewBox="0 0 1440 320">
<metadata>
<vectornator:setting key="DimensionsVisible" value="0"/>
<vectornator:setting key="PencilOnly" value="0"/>
<vectornator:setting key="SnapToPoints" value="0"/>
<vectornator:setting key="OutlineMode" value="0"/>
<vectornator:setting key="CMYKEnabledKey" value="0"/>
<vectornator:setting key="RulersVisible" value="1"/>
<vectornator:setting key="SnapToEdges" value="0"/>
<vectornator:setting key="GuidesVisible" value="0"/>
<vectornator:setting key="DisplayWhiteBackground" value="0"/>
<vectornator:setting key="doHistoryDisabled" value="0"/>
<vectornator:setting key="SnapToGuides" value="1"/>
<vectornator:setting key="TimeLapseWatermarkDisabled" value="0"/>
<vectornator:setting key="Units" value="Points"/>
<vectornator:setting key="DynamicGuides" value="1"/>
<vectornator:setting key="IsolateActiveLayer" value="0"/>
<vectornator:setting key="SnapToGrid" value="0"/>
</metadata>
<defs/>
<g id="Untitled" vectornator:layerName="Untitled">
<path d="M1439.84+249.155L1379.81+259.698C1319.79+269.84+1199.73+291.525+1079.77+274.911C959.814+258.896+839.956+204.581+719.927+215.266C599.899+225.951+479.705+299.636+359.663+315.621C239.622+331.006+119.733+288.691+59.7899+266.834L-0.154009+245.377L0.349834+53.3772L60.3496+53.5347C120.349+53.6921+240.349+54.007+360.349+54.3219C480.348+54.6368+600.348+54.9517+720.347+55.2666C840.347+55.5815+960.347+55.8964+1080.35+56.2113C1200.35+56.5262+1320.35+56.8411+1380.35+56.9986L1440.34+57.156L1439.84+249.155Z" fill-opacity="0.25" fill="#bde6e5" opacity="1"/>
</g>
</svg>
