<?xml version="1.0" encoding="UTF-8" standalone="no"?> <!-- Created with Vectornator for iOS (http://vectornator.io/) --><!DOCTYPE svg PUBLIC "-//W3C//DTD SVG 1.1//EN" "http://www.w3.org/Graphics/SVG/1.1/DTD/svg11.dtd">
<svg height="100%" style="fill-rule:nonzero;clip-rule:evenodd;stroke-linecap:round;stroke-linejoin:round;" xmlns:xlink="http://www.w3.org/1999/xlink" xmlns="http://www.w3.org/2000/svg" xml:space="preserve" width="100%" xmlns:vectornator="http://vectornator.io" version="1.1" viewBox="0 0 1440 320">
<metadata>
<vectornator:setting key="DimensionsVisible" value="0"/>
<vectornator:setting key="PencilOnly" value="0"/>
<vectornator:setting key="SnapToPoints" value="0"/>
<vectornator:setting key="OutlineMode" value="0"/>
<vectornator:setting key="CMYKEnabledKey" value="0"/>
<vectornator:setting key="RulersVisible" value="1"/>
<vectornator:setting key="SnapToEdges" value="0"/>
<vectornator:setting key="GuidesVisible" value="0"/>
<vectornator:setting key="DisplayWhiteBackground" value="0"/>
<vectornator:setting key="doHistoryDisabled" value="0"/>
<vectornator:setting key="SnapToGuides" value="1"/>
<vectornator:setting key="TimeLapseWatermarkDisabled" value="0"/>
<vectornator:setting key="Units" value="Points"/>
<vectornator:setting key="DynamicGuides" value="1"/>
<vectornator:setting key="IsolateActiveLayer" value="0"/>
<vectornator:setting key="SnapToGrid" value="0"/>
</metadata>
<defs/>
<g id="Untitled" vectornator:layerName="Untitled">
<path d="M0.345991+249.155L60.3759+259.698C120.396+269.84+240.456+291.525+360.416+274.911C480.372+258.896+600.23+204.581+720.259+215.266C840.287+225.951+960.481+299.636+1080.52+315.621C1200.56+331.006+1320.45+288.691+1380.4+266.834L1440.34+245.377L1439.84+53.3772L1379.84+53.5347C1319.84+53.6921+1199.84+54.007+1079.84+54.3219C959.838+54.6368+839.838+54.9517+719.839+55.2666C599.839+55.5815+479.839+55.8964+359.836+56.2113C239.836+56.5262+119.836+56.8411+59.836+56.9986L-0.154009+57.156L0.345991+249.155Z" fill-rule="evenodd" fill-opacity="0.25" fill="#bde6e5" opacity="1"/>
</g>
</svg>
